<?xml version="1.0" standalone="no"?>
<!DOCTYPE svg PUBLIC "-//W3C//DTD SVG 20010904//EN"
 "http://www.w3.org/TR/2001/REC-SVG-20010904/DTD/svg10.dtd">
<svg version="1.0" xmlns="http://www.w3.org/2000/svg"
 width="203.000000pt" height="249.000000pt" viewBox="0 0 203.000000 249.000000"
 preserveAspectRatio="xMidYMid meet">

<g transform="translate(0.000000,249.000000) scale(0.100000,-0.100000)"
fill="#000000" stroke="none">
<path d="M472 2471 c-124 -43 -200 -169 -171 -285 12 -50 66 -119 111 -142 23
-12 29 -20 24 -37 -40 -146 -27 -262 50 -433 3 -6 -30 -31 -73 -56 -210 -123
-371 -321 -402 -493 -21 -115 19 -219 100 -261 45 -23 138 -18 195 11 27 14
50 25 52 25 1 0 2 -13 2 -29 0 -22 -6 -30 -24 -35 -51 -13 -123 -83 -158 -153
-30 -62 -33 -75 -33 -163 0 -87 3 -101 33 -164 62 -132 151 -211 271 -242 146
-37 285 26 353 160 l15 29 201 1 201 1 17 -36 c22 -51 89 -114 149 -141 74
-34 179 -31 262 6 70 32 157 115 192 184 78 153 63 324 -39 435 -27 29 -67 62
-89 72 -34 15 -41 23 -41 47 0 15 1 28 3 28 1 0 24 -11 51 -25 63 -32 155 -35
202 -6 222 135 57 534 -309 749 -43 25 -76 50 -73 56 65 146 83 235 67 339 -6
40 -14 82 -17 94 -5 17 0 25 23 37 78 40 131 139 119 218 -34 209 -295 299
-443 152 l-45 -45 -56 18 c-79 24 -275 24 -354 0 l-56 -18 -45 45 c-32 31 -61
49 -98 60 -67 20 -101 20 -167 -3z m193 -95 c20 -15 35 -32 33 -37 -2 -4 -30
-30 -63 -57 -33 -26 -84 -78 -114 -115 l-54 -67 -30 17 c-63 37 -83 121 -47
193 35 68 97 101 182 97 43 -2 64 -10 93 -31z m882 19 c48 -20 71 -41 94 -87
37 -73 13 -160 -53 -194 -28 -14 -32 -14 -39 -1 -33 58 -100 128 -199 205
l-25 20 20 22 c43 49 132 64 202 35z m-397 -77 c119 -25 261 -129 327 -239
118 -198 62 -462 -130 -607 -31 -23 -57 -40 -57 -38 0 3 10 25 23 48 18 34 22
59 22 125 0 74 -3 85 -30 125 -22 31 -50 53 -99 78 -68 34 -71 35 -191 35
-120 0 -123 -1 -191 -35 -49 -25 -77 -47 -99 -78 -27 -40 -30 -51 -30 -125 0
-66 5 -91 22 -124 13 -24 20 -43 16 -43 -18 0 -110 83 -148 133 -57 75 -87
154 -92 247 -9 135 32 243 130 347 134 142 320 196 527 151z m12 -528 c95 -36
142 -98 142 -190 0 -91 -55 -170 -154 -221 -38 -20 -60 -24 -135 -24 -100 0
-149 18 -213 79 -125 117 -94 295 61 355 73 28 226 29 299 1z m-561 -374 c-4
-6 -34 -42 -65 -81 -91 -111 -176 -303 -176 -397 0 -46 -96 -117 -158 -118
-41 0 -90 30 -106 65 -74 156 111 434 389 587 l50 27 37 -36 c23 -22 34 -41
29 -47z m1034 1 c131 -88 256 -238 296 -354 45 -132 1 -243 -97 -243 -69 0
-164 75 -164 130 0 40 -37 154 -72 225 -37 73 -73 125 -133 196 l-45 53 36 37
37 38 41 -21 c23 -11 68 -39 101 -61z m-876 -77 c63 -32 157 -50 261 -50 103
0 182 18 282 63 l56 26 56 -65 c125 -146 176 -268 184 -440 l5 -111 -56 -7
c-200 -25 -357 -215 -357 -433 0 -43 -19 -48 -175 -48 -175 0 -169 -3 -183
102 -26 197 -144 331 -326 373 l-71 16 -3 69 c-8 172 49 317 186 482 58 69 53
68 141 23z m-190 -689 c61 -32 128 -103 159 -169 23 -49 27 -70 27 -147 0 -73
-4 -98 -22 -131 -57 -108 -174 -150 -299 -107 -70 24 -164 119 -192 196 -31
81 -30 185 2 253 25 54 83 109 131 124 48 15 146 5 194 -19z m1096 10 c48 -22
97 -70 122 -120 14 -27 18 -59 18 -131 0 -83 -4 -101 -27 -145 -35 -68 -102
-133 -166 -163 -44 -20 -65 -23 -117 -20 -92 6 -149 44 -193 128 -32 62 -34
69 -29 145 5 96 29 156 88 220 89 96 209 130 304 86z"/>
<path d="M730 2020 c-27 -27 -27 -83 2 -110 44 -41 112 -15 124 47 13 65 -78
111 -126 63z"/>
<path d="M1203 2025 c-29 -20 -37 -59 -18 -95 28 -54 106 -53 129 2 32 75 -45
140 -111 93z"/>
<path d="M922 1754 c-12 -8 -22 -24 -22 -34 0 -23 54 -87 81 -95 16 -5 19 -16
19 -71 0 -46 -4 -64 -13 -64 -25 0 -106 31 -118 46 -13 15 -49 19 -49 5 0 -16
58 -59 97 -72 49 -17 147 -17 196 0 39 13 97 56 97 72 0 15 -32 10 -51 -7 -20
-18 -84 -43 -111 -44 -15 0 -18 10 -18 64 0 55 3 66 19 71 27 8 81 72 81 95 0
33 -38 50 -115 50 -48 0 -78 -5 -93 -16z"/>
</g>
</svg>
