<?xml version="1.0" standalone="no"?>
<!DOCTYPE svg PUBLIC "-//W3C//DTD SVG 20010904//EN"
 "http://www.w3.org/TR/2001/REC-SVG-20010904/DTD/svg10.dtd">
<svg version="1.0" xmlns="http://www.w3.org/2000/svg"
 width="225.000000pt" height="225.000000pt" viewBox="0 0 225.000000 225.000000"
 preserveAspectRatio="xMidYMid meet">

<g transform="translate(0.000000,225.000000) scale(0.100000,-0.100000)"
fill="#000000" stroke="none">
<path d="M160 1992 c0 -64 29 -268 51 -362 31 -133 67 -237 120 -340 110 -216
259 -336 444 -359 l60 -7 -45 -13 c-94 -27 -180 -101 -230 -200 -30 -60 -68
-215 -76 -309 -6 -73 10 -289 22 -301 3 -3 35 10 72 29 78 39 206 162 267 255
68 102 140 256 186 396 l44 134 6 -110 c6 -106 24 -201 39 -210 7 -4 21 88 36
233 l6 63 44 -133 c104 -309 274 -535 482 -642 19 -10 36 -15 39 -13 2 3 9 56
15 119 17 191 -17 393 -88 513 -36 62 -116 132 -185 164 l-59 27 71 12 c187
32 325 154 434 383 24 52 55 135 70 184 33 114 73 331 81 441 l7 84 -46 0
c-58 0 -176 -23 -251 -49 -261 -92 -468 -334 -581 -681 -18 -58 -36 -98 -39
-90 -3 8 -12 67 -20 130 -7 63 -14 96 -15 74 -1 -27 -6 -44 -16 -48 -11 -4
-15 -22 -16 -63 -1 -67 -13 -117 -22 -93 -3 8 -15 47 -28 85 -30 96 -97 238
-154 326 -160 248 -377 385 -642 406 l-83 6 0 -41z m173 -67 c81 -21 132 -50
194 -107 100 -96 132 -222 78 -313 -41 -71 -126 -95 -192 -55 -73 44 -147 212
-176 398 l-14 92 26 0 c15 0 53 -7 84 -15z m1677 -1 c0 -9 -9 -61 -20 -116
-40 -195 -107 -325 -186 -360 -77 -34 -144 -7 -185 75 -59 114 27 290 177 363
100 49 214 69 214 38z m-434 -277 c-12 -81 -42 -116 -170 -201 -93 -62 -125
-89 -149 -128 -16 -26 -32 -48 -35 -48 -2 0 -1 17 3 38 11 66 28 112 40 112 6
0 16 19 23 43 6 23 21 53 32 67 l21 25 -6 -30 c-6 -27 -5 -28 6 -10 53 90 87
121 75 68 -5 -22 -4 -24 4 -11 6 9 24 27 41 39 l31 22 -7 -24 c-5 -17 3 -11
29 21 23 29 38 61 43 90 l7 45 9 -38 c5 -21 6 -57 3 -80z m-851 -33 c23 -25
32 -31 25 -16 -19 38 -3 37 35 -1 l36 -36 -6 32 -6 32 30 -34 c16 -19 37 -48
46 -65 12 -22 15 -25 12 -8 -3 12 -1 22 3 22 12 0 60 -100 60 -124 0 -15 3
-17 9 -8 5 9 13 -6 24 -45 25 -88 22 -104 -11 -53 -20 32 -62 68 -152 130
-158 108 -180 144 -171 270 l2 35 14 -46 c8 -25 31 -63 50 -85z m130 -228 c81
-37 158 -140 180 -241 6 -24 0 -19 -26 25 -19 30 -49 65 -68 77 -44 30 -108
31 -144 3 -35 -28 -40 -25 -33 18 l6 37 -29 -33 c-16 -19 -36 -57 -44 -85
l-15 -52 -15 35 -16 35 -1 -49 c0 -65 31 -129 76 -157 43 -26 40 -32 -12 -18
-58 16 -99 52 -130 114 -23 47 -26 64 -21 114 8 89 54 165 117 190 45 18 122
12 175 -13z m716 1 c65 -35 102 -109 97 -197 -5 -89 -37 -153 -92 -185 -24
-14 -56 -25 -72 -25 l-29 0 32 21 c52 33 73 77 72 150 0 61 -1 62 -12 32 -16
-43 -27 -52 -27 -22 -1 33 -33 100 -60 124 l-23 20 7 -37 7 -37 -51 26 c-49
25 -51 26 -93 9 -50 -19 -75 -43 -111 -106 -31 -54 -33 -40 -6 32 65 173 232
263 361 195z m-1176 -35 c19 -10 56 -16 101 -17 l70 0 -18 -48 c-20 -52 -24
-160 -8 -201 6 -16 6 -26 0 -26 -22 0 -82 76 -116 147 -20 43 -52 100 -71 126
-32 46 -33 48 -11 42 13 -4 37 -15 53 -23z m1492 -4 c-14 -18 -44 -71 -67
-118 -37 -74 -111 -170 -131 -170 -4 0 0 21 8 48 17 56 12 124 -15 185 l-19
43 61 -3 c47 -3 73 2 116 21 73 32 75 31 47 -6z m-937 -184 c57 -53 105 -142
95 -173 -6 -20 -12 -21 -78 -15 -40 4 -85 14 -102 22 l-30 15 57 13 c61 14 96
8 130 -23 11 -10 18 -12 18 -5 0 7 -19 26 -42 43 -44 32 -73 34 -160 13 -19
-4 -32 0 -48 16 -48 48 2 140 76 140 28 0 45 -10 84 -46z m474 15 c21 -16 26
-29 26 -64 0 -24 -6 -47 -12 -52 -7 -4 -54 -8 -105 -8 -88 0 -93 -1 -122 -29
-35 -34 -37 -32 -15 19 55 133 155 192 228 134z m-58 -149 c87 0 -2 -47 -107
-56 -71 -7 -73 -6 -59 11 28 34 73 56 104 50 16 -3 44 -5 62 -5z m-379 -121
c-26 -22 -71 -77 -101 -123 -73 -110 -131 -162 -222 -196 l-26 -10 28 32 c15
18 47 76 71 128 25 52 56 108 71 123 45 48 120 78 211 86 8 0 -7 -17 -32 -40z
m306 27 c101 -24 129 -50 192 -183 31 -65 66 -128 78 -140 31 -34 2 -30 -59 8
-73 46 -99 74 -170 181 -38 57 -80 108 -102 123 -43 29 -29 32 61 11z m-282
-43 c-5 -11 -14 -62 -20 -114 -10 -96 -28 -162 -56 -202 -14 -20 -15 -13 -15
91 0 125 9 157 60 216 34 38 49 42 31 9z m272 -53 c25 -49 27 -60 26 -169 l-1
-116 -28 60 c-21 43 -32 87 -39 157 -6 53 -16 109 -21 124 -10 26 -10 27 12
12 13 -9 35 -39 51 -68z m-386 -207 c-2 -107 -5 -123 -30 -175 -16 -32 -42
-68 -59 -80 -30 -20 -31 -21 -24 -2 13 29 23 81 35 169 7 51 22 103 42 143 17
34 32 62 34 62 2 0 3 -53 2 -117z m475 51 c22 -48 34 -93 43 -168 7 -57 18
-113 25 -125 21 -40 4 -33 -38 14 -56 64 -72 117 -72 242 0 57 2 103 6 103 3
0 19 -30 36 -66z m-683 -190 c26 -19 51 -71 51 -107 0 -38 -57 -113 -115 -151
-92 -61 -89 -63 -82 40 12 179 72 269 146 218z m940 -8 c12 -13 29 -46 37 -72
16 -52 32 -224 20 -224 -15 0 -94 55 -134 93 -71 69 -77 158 -15 207 34 27 65
25 92 -4z"/>
<path d="M1324 1815 c-31 -13 -114 -96 -134 -136 -7 -14 3 -6 24 18 23 26 54
48 84 59 47 17 82 41 82 54 0 15 -27 18 -56 5z"/>
<path d="M852 1808 c3 -7 36 -30 74 -51 38 -20 79 -50 92 -65 l24 -27 -15 30
c-9 17 -38 52 -66 78 -38 35 -58 47 -81 47 -21 0 -30 -4 -28 -12z"/>
<path d="M1132 1500 c0 -14 2 -19 5 -12 2 6 2 18 0 25 -3 6 -5 1 -5 -13z"/>
</g>
</svg>
