<?xml version="1.0" standalone="no"?>
<!DOCTYPE svg PUBLIC "-//W3C//DTD SVG 20010904//EN"
 "http://www.w3.org/TR/2001/REC-SVG-20010904/DTD/svg10.dtd">
<svg version="1.0" xmlns="http://www.w3.org/2000/svg"
 width="277.000000pt" height="182.000000pt" viewBox="0 0 277.000000 182.000000"
 preserveAspectRatio="xMidYMid meet">

<g transform="translate(0.000000,182.000000) scale(0.100000,-0.100000)"
fill="#000000" stroke="none">
<path d="M1589 1810 c-9 -5 -44 -11 -78 -12 -33 -2 -61 -6 -61 -10 0 -17 54
-47 75 -42 29 7 50 -26 58 -94 4 -36 14 -63 32 -83 27 -33 33 -80 13 -97 -7
-5 -38 -17 -69 -26 -31 -9 -67 -25 -80 -36 l-24 -19 40 -1 c59 0 30 -21 -44
-31 -68 -10 -119 5 -145 43 -9 12 -16 18 -16 12 0 -19 48 -64 69 -64 11 0 23
-5 27 -12 12 -19 -51 -2 -93 26 -21 14 -56 28 -78 32 -35 6 -39 5 -27 -8 7 -9
28 -19 46 -22 18 -4 41 -15 51 -26 10 -11 28 -20 41 -20 13 0 26 -5 30 -11 4
-7 -10 -9 -49 -4 -30 4 -70 3 -88 -1 -31 -8 -26 -9 41 -16 41 -4 98 -8 125 -8
44 -1 47 -2 25 -11 -14 -6 -52 -14 -85 -18 -51 -7 -54 -9 -20 -10 22 0 54 3
72 8 42 12 50 2 16 -20 -46 -30 -102 -33 -192 -10 -67 18 -89 20 -122 11 -50
-14 -50 -20 -1 -13 27 4 51 -1 79 -15 22 -12 70 -27 107 -34 l67 -14 -37 -18
c-31 -14 -51 -16 -111 -11 -40 4 -103 4 -140 0 l-68 -7 64 -31 c44 -20 88 -32
139 -37 74 -8 92 -17 92 -52 0 -25 -55 -65 -134 -98 -38 -17 -81 -41 -96 -55
-28 -27 -58 -31 -125 -15 -59 14 -54 4 9 -16 48 -15 61 -16 98 -4 42 13 97 25
166 37 l33 5 -25 -25 c-28 -28 -33 -64 -13 -89 6 -8 34 -30 60 -48 27 -17 46
-34 43 -37 -2 -3 -45 5 -95 16 -125 29 -232 22 -311 -22 -59 -32 -106 -38
-195 -24 l-50 8 58 -25 c55 -23 64 -24 150 -15 51 4 108 13 127 19 52 15 50
12 -10 -20 -41 -21 -69 -29 -110 -30 l-55 0 50 -24 c28 -13 60 -34 72 -48 l23
-24 -114 -46 c-105 -43 -117 -46 -151 -35 -33 10 -39 9 -51 -7 -7 -11 -15 -24
-17 -30 -2 -7 -19 -3 -44 12 -47 25 -84 28 -139 8 -22 -7 -70 -19 -109 -26
-78 -14 -249 -96 -287 -138 l-23 -25 24 13 c33 17 50 -3 20 -24 l-23 -16 29 0
30 -1 -28 -24 c-33 -29 -28 -31 16 -8 30 15 31 15 18 0 -7 -10 -10 -17 -5 -17
5 0 0 -7 -10 -15 -19 -15 -19 -15 1 -15 39 0 35 -20 -7 -39 l-41 -18 38 -6
c52 -9 142 7 192 32 22 12 55 21 73 21 59 1 110 18 142 49 17 16 52 39 78 50
53 22 73 51 64 92 -6 34 6 44 33 27 23 -14 44 -1 64 40 9 20 38 36 128 72
l115 47 32 -27 c40 -33 40 -42 2 -74 l-30 -25 35 -7 c19 -3 47 -4 63 -1 50 10
163 61 194 89 29 26 68 38 68 21 0 -4 -15 -20 -34 -37 -28 -26 -34 -41 -41
-91 -4 -33 -12 -66 -18 -74 -10 -12 -9 -12 10 -3 24 13 63 72 63 95 0 21 50
47 90 47 33 0 37 -6 16 -29 -7 -9 -16 -28 -20 -43 -6 -28 0 -33 32 -29 8 1 33
-18 56 -43 41 -44 65 -54 100 -40 9 3 16 15 16 26 0 16 -3 18 -13 9 -17 -14
-35 5 -67 72 -30 60 -21 91 34 122 22 12 43 32 47 44 5 11 15 21 24 21 24 0
30 -28 11 -49 -15 -17 -16 -25 -5 -60 13 -43 38 -61 51 -36 11 19 42 20 57 1
15 -18 79 -28 102 -15 29 15 24 36 -8 32 -22 -3 -35 4 -61 31 -19 20 -40 36
-48 36 -13 0 -20 36 -17 95 2 30 88 155 140 200 34 31 47 50 52 79 6 37 9 39
80 68 48 18 83 27 100 23 19 -4 36 2 60 19 25 19 41 23 63 19 32 -6 72 21 64
44 -6 15 2 17 60 14 24 -2 56 5 74 14 44 23 34 27 -19 9 -24 -8 -46 -12 -49
-9 -8 8 -14 5 211 95 114 46 215 89 225 96 16 12 16 13 -1 19 -11 5 -68 -13
-156 -49 -76 -31 -146 -56 -155 -56 -25 0 -49 65 -42 114 4 26 1 50 -8 67 -8
16 -10 32 -5 40 14 22 11 29 -18 42 -16 6 -33 18 -39 25 -8 11 -14 5 -28 -27
-10 -22 -16 -47 -13 -56 4 -9 -6 -30 -27 -53 -46 -51 -52 -86 -26 -156 30 -79
26 -85 -57 -81 -91 4 -147 25 -151 56 -6 40 -59 95 -142 151 -44 28 -80 58
-80 64 0 24 24 28 38 6 8 -12 21 -22 28 -22 17 0 17 5 2 46 -6 17 -8 40 -4 50
7 18 8 18 26 -3 24 -30 30 -29 30 5 0 18 -10 38 -25 52 -36 34 -30 63 15 71
40 6 91 31 109 53 8 9 10 27 5 50 -7 40 -24 59 -24 27 0 -12 -5 -21 -11 -21
-6 0 -18 -9 -27 -20 -13 -14 -32 -20 -73 -21 -54 -2 -57 -1 -92 38 -21 22 -37
48 -37 58 0 27 -46 82 -75 89 -19 5 -25 13 -25 35 0 47 -43 73 -81 51z m-404
-716 l30 -14 -40 5 c-22 3 -58 9 -80 14 l-40 9 50 0 c28 1 64 -5 80 -14z
m1210 -24 c3 -5 1 -10 -4 -10 -6 0 -11 5 -11 10 0 6 2 10 4 10 3 0 8 -4 11
-10z m-426 -114 c9 -8 29 -22 46 -30 l29 -15 -37 -16 c-21 -9 -60 -24 -86 -35
l-49 -19 -23 25 c-18 19 -33 24 -70 24 -56 0 -79 7 -79 25 0 18 20 32 59 40
31 7 33 5 28 -14 -4 -18 -1 -21 21 -21 15 1 47 12 72 25 53 28 68 30 89 11z
m-759 -506 c-25 -34 -43 -46 -106 -65 l-44 -13 20 28 c18 25 48 44 111 69 39
16 42 13 19 -19z"/>
</g>
</svg>
