<?xml version="1.0" standalone="no"?>
<!DOCTYPE svg PUBLIC "-//W3C//DTD SVG 20010904//EN"
 "http://www.w3.org/TR/2001/REC-SVG-20010904/DTD/svg10.dtd">
<svg version="1.0" xmlns="http://www.w3.org/2000/svg"
 width="1280.000000pt" height="1280.000000pt" viewBox="0 0 1280.000000 1280.000000"
 preserveAspectRatio="xMidYMid meet">
<g transform="translate(0.000000,1280.000000) scale(0.100000,-0.100000)"
fill="#000000" stroke="none">
<path d="M4888 11791 l-33 -29 -5 -1489 -5 -1488 -745 -5 c-693 -5 -748 -6
-794 -24 -121 -45 -178 -106 -184 -194 -2 -42 2 -66 15 -89 23 -40 128 -162
1467 -1693 1618 -1849 1514 -1733 1590 -1770 131 -65 294 -64 425 2 65 33 87
57 1553 1733 819 935 1495 1716 1505 1735 39 82 7 169 -83 229 -103 68 -71 65
-889 71 l-740 5 -5 1485 c-3 817 -9 1492 -13 1501 -4 8 -21 23 -36 32 -27 16
-135 17 -1510 17 l-1481 0 -32 -29z"/>
<path d="M3294 7162 c-27 -22 -2171 -4109 -2179 -4155 -5 -25 -2 -38 10 -50
15 -16 397 -17 5278 -17 3261 0 5268 4 5277 10 43 27 48 17 -1064 2140 -592
1130 -1086 2063 -1097 2073 -19 15 -48 17 -283 16 l-261 0 -1000 -1145 c-550
-630 -1035 -1179 -1078 -1221 -53 -50 -101 -85 -145 -106 l-67 -32 -275 0
c-267 0 -277 1 -335 24 -112 44 -181 121 -1759 1924 l-487 557 -257 0 c-228 0
-259 -2 -278 -18z"/>
<path d="M1139 2601 l-29 -29 0 -902 0 -902 29 -29 29 -29 5232 0 5232 0 29
29 29 29 0 902 0 902 -29 29 -29 29 -5232 0 -5232 0 -29 -29z m8873 -518 c195
-92 276 -317 185 -512 -32 -70 -130 -163 -202 -192 l-60 -24 -4090 0 -4090 0
-57 23 c-32 13 -82 45 -111 72 -227 208 -147 562 148 656 32 10 845 12 4125
11 l4085 -2 67 -32z m1099 -87 c47 -22 102 -78 126 -125 13 -26 18 -59 18
-116 0 -69 -4 -86 -27 -127 -121 -205 -425 -167 -488 62 -33 118 31 253 144
307 42 20 63 23 121 21 40 -2 86 -11 106 -22z"/>
</g>
</svg>
