<?xml version="1.0" standalone="no"?>
<!DOCTYPE svg PUBLIC "-//W3C//DTD SVG 20010904//EN"
 "http://www.w3.org/TR/2001/REC-SVG-20010904/DTD/svg10.dtd">
<svg version="1.0" xmlns="http://www.w3.org/2000/svg"
 width="225.000000pt" height="225.000000pt" viewBox="0 0 225.000000 225.000000"
 preserveAspectRatio="xMidYMid meet">

<g transform="translate(0.000000,225.000000) scale(0.100000,-0.100000)"
fill="#000000" stroke="none">
<path d="M1045 2052 c9 -19 14 -36 12 -39 -3 -2 6 -15 20 -29 19 -19 24 -33
21 -66 -4 -55 -21 -58 -49 -9 -12 23 -24 39 -27 37 -2 -3 8 -28 24 -56 22 -40
25 -53 15 -63 -10 -9 -19 -4 -47 25 -40 44 -42 42 -11 -13 l22 -40 -35 -30
c-20 -17 -46 -29 -62 -29 -24 0 -28 4 -29 28 0 15 -4 36 -9 47 -6 13 -7 0 -3
-36 5 -49 3 -59 -16 -78 -26 -26 -105 -29 -139 -5 -22 15 -23 21 -18 83 l6 66
-16 -48 c-14 -46 -17 -48 -42 -42 -42 10 -74 28 -86 48 -9 14 -6 27 12 59 12
23 21 43 19 45 -2 1 -18 -15 -36 -37 -40 -49 -61 -52 -61 -7 0 52 30 100 70
111 l35 10 -32 5 -33 6 21 34 c31 51 15 49 -21 -3 -17 -25 -35 -46 -40 -46
-13 0 -13 6 6 42 12 23 12 29 3 26 -25 -8 -63 -98 -67 -157 -4 -53 -2 -59 25
-82 16 -13 65 -43 109 -67 44 -23 85 -52 92 -62 16 -26 0 -26 -23 0 -19 21
-112 56 -122 46 -10 -10 39 -106 61 -122 11 -8 33 -14 48 -14 15 0 30 -5 34
-11 4 -7 12 1 20 20 11 25 19 32 36 29 13 -2 24 -11 26 -21 3 -15 -1 -17 -22
-11 -16 4 -26 2 -26 -5 0 -6 9 -11 20 -11 11 0 20 -4 20 -9 0 -13 -37 -24 -52
-15 -8 5 -9 2 -5 -10 4 -10 0 -56 -8 -103 -8 -47 -15 -102 -15 -122 0 -50 -12
-63 -55 -63 -33 0 -40 -5 -66 -46 -16 -25 -31 -53 -34 -63 -7 -22 -135 -89
-170 -89 -23 0 -26 4 -23 27 3 24 9 29 47 35 25 4 49 12 54 17 12 12 -29 35
-49 27 -8 -3 -14 1 -14 9 0 11 -5 12 -25 5 -21 -8 -25 -7 -25 10 0 15 8 19 42
22 29 2 42 7 40 16 -2 10 7 13 29 10 20 -2 34 2 36 10 3 6 -2 12 -11 12 -9 0
-16 5 -16 11 0 7 -11 9 -30 6 -18 -4 -30 -2 -30 4 0 6 -14 7 -35 3 -30 -5 -34
-4 -29 10 3 9 16 16 28 16 31 0 49 15 52 44 2 23 0 25 -16 16 -25 -13 -43 -13
-34 1 4 8 0 9 -15 4 -26 -8 -28 11 -2 25 22 11 17 55 -5 46 -9 -4 -14 2 -14
18 0 17 8 26 33 34 25 8 27 10 10 11 -26 1 -29 11 -10 30 10 11 8 12 -10 6
-17 -5 -23 -2 -23 10 0 15 -2 15 -22 1 -12 -9 -32 -16 -43 -16 -18 -1 -17 -3
8 -21 33 -25 38 -69 7 -69 -11 0 -20 -4 -20 -9 0 -5 -8 -11 -18 -13 -11 -3 -4
-8 21 -17 64 -22 40 -55 -37 -49 -68 4 -60 -23 11 -42 26 -6 51 -17 55 -23 4
-7 8 -38 8 -69 0 -49 -3 -58 -17 -58 -10 0 -24 4 -32 9 -10 7 -19 4 -27 -7
-10 -13 -17 -14 -47 -5 -39 12 -47 9 -47 -18 0 -11 11 -19 35 -23 25 -5 33
-11 28 -22 -5 -14 2 -15 51 -9 57 7 58 7 54 -16 -2 -19 -9 -24 -30 -24 -17 1
-28 -5 -28 -13 0 -9 -9 -11 -36 -6 -26 5 -35 3 -30 -4 4 -7 -3 -14 -19 -18
-28 -7 -34 -24 -8 -24 14 0 14 -2 -2 -20 -20 -22 -15 -24 33 -11 34 10 46 -3
12 -14 -23 -7 -27 -25 -5 -25 34 0 12 -20 -22 -21 -31 0 -34 -2 -18 -9 11 -5
31 -9 45 -9 34 -1 103 -21 96 -28 -8 -8 -79 -12 -91 -4 -17 10 -65 9 -65 -1 0
-5 -9 -7 -20 -3 -33 10 -12 -24 24 -39 l31 -14 -33 -12 c-18 -7 -31 -14 -28
-17 2 -2 40 -6 84 -8 44 -1 85 -5 90 -9 11 -7 26 -122 17 -136 -4 -7 -14 -6
-27 1 -17 9 -23 8 -30 -5 -7 -12 -14 -13 -34 -6 -36 14 -37 13 -17 -17 l17
-26 -28 7 c-77 19 -92 20 -79 4 10 -11 10 -17 0 -27 -10 -10 10 -11 96 -5 72
4 107 3 107 -4 0 -15 -55 -32 -81 -25 -15 4 -20 3 -15 -5 4 -7 3 -12 -3 -12
-5 0 -12 6 -14 13 -4 8 -8 9 -14 1 -4 -6 -21 -15 -38 -19 -27 -8 -28 -9 -7
-12 23 -5 31 -23 10 -23 -13 -1 -64 -39 -57 -43 2 -1 13 -10 25 -19 16 -14 27
-16 55 -8 18 5 53 12 77 15 l42 5 -16 -25 c-25 -39 -12 -67 44 -93 45 -21 54
-22 90 -11 34 10 44 9 57 -1 14 -12 15 -10 9 15 -5 18 -3 26 3 22 6 -4 22 2
34 13 l24 19 -35 -10 c-19 -6 -50 -14 -69 -19 -18 -5 -38 -13 -44 -19 -6 -6
-19 -11 -30 -11 -26 0 -18 33 10 40 21 5 21 5 -3 23 -20 15 -24 16 -24 3 0
-19 -47 -33 -62 -18 -25 25 37 81 70 63 14 -7 41 -1 106 25 l88 35 33 -33 34
-32 -23 -16 c-22 -14 -20 -15 46 -16 47 -1 73 -6 79 -15 15 -24 -13 -37 -110
-48 -121 -14 -143 -31 -39 -31 58 0 79 -4 89 -17 11 -13 11 -17 1 -20 -6 -3
-10 -9 -7 -13 9 -15 72 14 96 43 l22 29 -20 36 c-13 23 -36 44 -60 56 -22 10
-47 32 -56 49 -20 34 -13 52 9 23 14 -19 14 -19 14 1 0 12 5 25 10 28 6 3 10
-4 10 -17 0 -25 20 -64 20 -39 0 8 6 11 16 7 12 -5 14 -1 9 17 -6 21 -6 21 14
-3 l21 -25 -9 32 c-5 18 -12 37 -16 43 -3 5 -4 10 0 10 3 0 14 -15 25 -32 l20
-33 1 30 1 30 11 -27 c13 -34 21 -35 41 -7 14 21 15 21 20 -12 9 -61 18 -199
12 -199 -16 0 -46 43 -47 68 -1 25 -1 25 -11 -8 -5 -19 -7 -49 -5 -67 5 -26 2
-33 -14 -38 -11 -4 -31 -18 -45 -32 -25 -25 -52 -27 -98 -8 -14 6 -17 5 -14
-6 3 -10 19 -13 54 -12 106 5 122 7 117 20 -3 6 9 19 26 28 24 12 36 13 52 5
16 -9 18 -14 8 -26 -6 -8 -17 -14 -25 -14 -7 0 -15 -4 -19 -10 -3 -5 8 -4 26
2 24 8 44 8 79 -1 31 -8 130 -12 296 -11 203 2 254 -1 277 -13 20 -11 38 -12
65 -6 20 5 54 9 74 9 27 0 40 6 48 20 9 16 21 20 63 20 29 0 58 4 66 9 19 12
8 51 -24 85 -14 16 -24 30 -21 33 4 4 118 20 159 23 4 0 7 22 7 49 0 48 1 49
35 55 25 5 39 14 45 31 5 13 28 34 52 46 51 26 60 37 47 60 -15 29 -11 35 31
48 32 9 40 16 40 36 0 13 8 28 17 34 15 8 15 13 5 36 -7 14 -12 48 -12 74 0
40 -4 50 -22 58 -21 9 -23 17 -23 84 0 58 -5 82 -20 104 -11 17 -18 35 -17 40
1 6 -10 11 -24 12 -15 0 -30 7 -34 13 -6 10 -15 10 -41 1 -21 -7 -36 -8 -42
-2 -7 7 16 22 64 44 64 29 69 34 39 32 -19 -2 -42 -6 -51 -9 -8 -4 -26 -3 -40
3 l-24 9 25 10 c14 5 32 12 40 15 12 4 11 6 -3 6 -16 1 -16 3 -1 26 19 30 11
49 -16 35 -12 -7 -20 -6 -22 1 -2 7 -15 4 -35 -7 -33 -19 -49 -15 -40 9 3 8
26 18 51 21 42 7 74 26 44 26 -7 0 4 11 25 24 55 34 57 39 12 31 l-40 -6 33
28 c36 31 43 49 13 33 -11 -5 -26 -8 -33 -5 -8 3 -22 -3 -32 -14 -10 -11 -24
-17 -31 -15 -7 3 -16 1 -20 -5 -13 -23 -35 -11 -35 19 0 24 5 31 28 36 15 4
31 9 37 13 5 3 18 5 27 6 37 0 11 18 -32 22 -61 5 -70 9 -70 32 0 18 6 19 58
15 51 -3 54 -2 30 8 -36 15 -35 23 2 38 44 18 46 29 2 19 -54 -13 -62 -11 -62
11 0 14 7 20 23 21 17 0 14 4 -15 17 -41 18 -48 35 -20 51 9 6 11 11 5 11 -7
0 -13 7 -13 15 0 8 -6 15 -12 15 -7 1 0 11 15 24 27 22 27 23 5 22 -17 -1 -24
6 -29 29 -4 17 -7 22 -8 13 0 -10 -6 -18 -12 -18 -5 0 -7 -4 -4 -10 3 -5 -2
-10 -12 -10 -15 0 -14 -3 6 -19 26 -20 23 -58 -4 -47 -8 3 -15 1 -15 -4 0 -5
-8 -11 -17 -13 -13 -3 -12 -5 5 -6 14 -1 21 -5 16 -12 -3 -6 0 -16 7 -21 10
-6 3 -7 -18 -3 -18 4 -37 4 -42 0 -15 -8 23 -43 51 -47 38 -5 21 -23 -25 -24
-23 -1 -49 -2 -57 -3 -23 -4 19 -19 53 -20 29 -1 39 -21 10 -21 -14 -1 -12 -4
7 -15 l25 -14 -26 -1 c-15 0 -49 15 -75 33 -27 18 -65 39 -84 47 -19 7 -55 25
-79 39 -37 21 -60 25 -150 29 -99 4 -108 2 -141 -20 -19 -13 -53 -51 -75 -86
-35 -55 -44 -62 -72 -62 -26 0 -33 -4 -33 -20 0 -16 7 -20 34 -20 32 0 38 5
72 63 71 118 71 118 102 101 15 -7 34 -14 43 -14 8 0 28 -13 43 -29 23 -24 26
-32 17 -49 -6 -12 -11 -45 -11 -74 0 -86 -16 -127 -56 -144 -79 -33 -337 -41
-356 -10 -4 6 -8 32 -8 59 0 43 2 47 24 47 29 0 86 45 86 67 0 13 -3 13 -15 3
-8 -7 -15 -18 -15 -25 0 -16 -22 -25 -60 -25 -34 0 -46 18 -56 79 -5 29 -11
40 -20 37 -12 -5 -64 39 -64 54 0 4 9 15 20 25 16 15 22 15 35 5 8 -7 15 -23
15 -37 0 -22 1 -23 16 -9 8 9 27 16 40 16 41 0 85 29 100 65 19 45 19 45 -19
45 -18 0 -49 -11 -70 -26 -21 -14 -41 -23 -45 -19 -13 12 15 39 55 52 52 18
128 84 153 134 24 46 26 108 5 135 -15 18 -15 16 -10 -23 4 -26 3 -43 -3 -43
-14 0 -21 36 -15 73 4 25 0 36 -19 52 -12 11 -17 13 -10 5 6 -8 12 -23 11 -34
0 -20 -1 -19 -17 3 -9 14 -25 34 -35 45 -17 20 -17 20 -2 -12z m-535 -111 c0
-5 -7 -14 -15 -21 -16 -14 -18 -10 -9 14 6 17 24 22 24 7z m-10 -73 c0 -5 -4
-8 -10 -8 -5 0 -10 10 -10 23 0 18 2 19 10 7 5 -8 10 -18 10 -22z m616 -14
c-10 -14 -20 -23 -23 -20 -3 3 2 17 11 32 10 14 20 23 23 20 3 -3 -2 -17 -11
-32z m-499 -190 c24 -20 42 -39 39 -41 -12 -12 -68 22 -82 48 -19 38 -10 36
43 -7z m417 4 c-28 -34 -36 -38 -74 -37 l-35 0 30 15 c17 8 41 21 55 29 36 21
46 18 24 -7z m-239 -8 c4 -6 -5 -10 -19 -10 -14 0 -26 5 -26 10 0 6 9 10 19
10 11 0 23 -4 26 -10z m80 0 c-3 -5 -15 -10 -25 -10 -10 0 -22 5 -25 10 -4 6
7 10 25 10 18 0 29 -4 25 -10z m-42 -108 c25 -28 26 -66 2 -69 -11 -1 -14 0
-7 3 6 3 12 15 12 26 0 17 -3 18 -15 8 -16 -13 -65 -6 -65 10 0 9 39 40 51 40
3 0 13 -8 22 -18z m1007 -157 l0 -146 -47 5 c-27 2 -52 5 -56 5 -5 1 -5 6 -2
12 5 6 23 8 49 4 22 -4 39 -5 36 -2 -11 12 -93 35 -106 30 -8 -3 -14 0 -14 7
0 9 12 11 40 7 37 -5 40 -4 28 11 -11 13 -11 15 2 7 8 -4 23 -15 33 -24 17
-15 18 -13 15 29 l-3 45 -53 0 c-28 0 -52 3 -52 8 0 4 9 7 19 7 11 0 21 5 23
12 3 9 12 9 38 0 37 -13 45 -10 37 13 -6 14 -46 21 -86 15 -8 -1 -12 4 -8 14
3 8 -1 20 -9 27 -11 9 -12 15 -4 23 7 7 13 8 18 0 4 -5 25 -10 47 -10 34 1 41
5 43 24 8 54 12 12 12 -123z m-1024 75 c13 0 24 -4 24 -10 0 -5 -5 -10 -12
-10 -6 0 -9 -3 -6 -6 4 -3 20 2 37 10 38 20 41 20 41 -3 0 -92 -97 -135 -161
-72 -18 18 -29 40 -29 56 0 24 3 26 23 20 12 -3 33 -9 46 -12 l25 -6 -27 28
c-14 16 -23 33 -20 39 4 5 13 0 21 -12 8 -12 25 -22 38 -22z m662 17 c16 -13
15 -27 -2 -27 -22 0 -64 -39 -68 -63 -6 -40 -22 -13 -19 33 4 73 8 80 44 73
18 -3 38 -10 45 -16z m37 -90 c44 -13 147 -78 183 -114 l23 -23 -23 -9 c-23
-10 -23 -10 4 -10 29 -1 46 -16 26 -24 -7 -2 -10 -8 -6 -12 4 -4 23 -2 43 5
31 10 39 10 56 -6 21 -19 25 -49 8 -59 -5 -4 -18 0 -28 9 -20 18 -41 21 -41 5
0 -5 -5 -7 -10 -4 -6 4 -25 11 -42 15 -29 9 -30 9 -14 -9 16 -17 15 -19 -6
-25 l-23 -7 25 -10 c14 -6 52 -14 85 -17 46 -5 61 -11 63 -24 4 -22 -25 -24
-73 -4 -31 13 -35 13 -35 0 0 -16 -16 -19 -25 -4 -5 8 -12 7 -22 -1 -13 -11
-13 -14 3 -26 10 -7 26 -13 36 -13 29 0 21 -20 -9 -22 -16 -1 -3 -4 27 -8 41
-4 50 -8 35 -14 -11 -4 -28 -12 -37 -17 -10 -5 -25 -9 -35 -9 -15 0 -14 -2 3
-15 18 -13 17 -14 -14 -21 -19 -4 -36 -14 -39 -23 -3 -9 -13 -24 -22 -34 -8
-10 16 0 55 22 71 41 98 49 108 32 3 -5 45 29 93 75 93 88 114 98 154 65 22
-18 22 -20 10 -77 -7 -33 -15 -69 -17 -82 -3 -13 -25 -43 -49 -67 -25 -24 -45
-46 -45 -49 0 -3 20 4 45 16 50 24 62 21 44 -14 -20 -38 -41 -47 -114 -47 -38
-1 -92 -2 -119 -4 -70 -3 -79 15 -43 88 l27 55 -25 -16 c-14 -9 -25 -20 -25
-26 0 -5 -14 -15 -32 -22 -30 -13 -30 -14 -11 -24 29 -16 41 -92 17 -109 -26
-19 -54 -16 -54 6 0 10 -9 29 -19 42 -18 22 -18 25 -4 42 14 15 15 20 2 44
l-14 27 -3 -37 c-3 -39 -15 -48 -26 -21 -3 9 -6 43 -6 76 0 54 2 60 19 55 15
-3 20 2 25 25 9 47 7 217 -3 236 -14 27 -110 88 -173 112 -32 12 -58 23 -58
25 0 3 10 25 22 50 24 50 36 53 103 32z m-577 -114 c-5 -32 -15 -67 -22 -78
-6 -11 -18 -39 -26 -62 -7 -24 -17 -43 -22 -43 -4 0 -8 -6 -8 -14 0 -7 -7 -20
-17 -27 -9 -8 -14 -9 -12 -4 48 117 89 228 94 257 11 61 23 34 13 -29z m81
-128 l-1 -60 -13 70 c-18 93 -18 119 0 80 8 -16 14 -57 14 -90z m39 78 c11
-21 22 -51 26 -66 11 -45 -10 -23 -30 31 -10 26 -22 53 -27 60 -6 8 -6 12 2
12 6 0 19 -17 29 -37z m-412 -19 c27 -5 31 -12 48 -82 10 -42 23 -83 28 -89 7
-9 7 -13 0 -13 -18 0 -39 47 -57 125 -1 6 -5 -15 -9 -46 -4 -30 -2 -75 3 -100
6 -24 11 -62 11 -84 0 -28 9 -51 30 -79 16 -21 27 -43 23 -48 -3 -6 -8 -5 -13
2 -6 9 -12 9 -28 -1 -12 -7 -25 -10 -29 -6 -4 5 -1 12 7 17 11 7 8 10 -13 10
-18 0 -26 4 -21 11 4 7 -2 9 -17 7 -20 -2 -25 2 -27 25 -3 23 0 27 23 27 21 0
25 4 20 19 -4 14 0 21 12 24 13 3 11 5 -7 6 -25 1 -58 17 -50 23 3 2 19 10 35
17 28 13 29 14 9 21 -28 11 -37 35 -18 50 21 18 17 32 -5 20 -17 -9 -20 -5
-27 33 l-8 42 -6 -35 c-4 -25 -10 -35 -23 -34 -9 1 -17 -2 -17 -7 0 -5 -7 -9
-15 -9 -20 0 -19 -10 3 -26 16 -12 16 -13 -2 -20 -14 -5 -23 -2 -34 14 -11 17
-18 19 -39 11 -31 -12 -45 -1 -19 15 58 35 100 71 114 98 35 65 55 75 118 62z
m964 -98 c12 -53 9 -134 -7 -159 -5 -7 -11 7 -15 33 -10 65 -9 180 0 180 5 0
15 -24 22 -54z m-276 -156 c4 -25 15 -60 26 -78 26 -42 25 -44 -6 -30 -20 9
-30 9 -47 -1 -46 -29 -257 -81 -257 -64 0 23 33 53 58 53 39 0 141 27 180 48
l33 17 -6 65 c-7 73 8 65 19 -10z m-796 24 c6 -2 12 -11 12 -20 0 -13 -6 -15
-27 -9 -23 5 -25 4 -14 -9 11 -13 9 -17 -13 -26 -28 -10 -35 -30 -11 -30 8 0
15 -5 15 -11 0 -7 9 -9 24 -5 16 4 26 1 30 -9 9 -25 -5 -47 -26 -42 -14 4 -18
1 -14 -8 6 -15 -14 -25 -52 -25 l-27 -1 25 -14 c14 -8 37 -14 53 -15 15 0 27
-4 27 -10 0 -5 -9 -10 -21 -10 -11 0 -17 -4 -14 -10 3 -5 15 -10 26 -10 16 0
19 -7 19 -49 0 -55 -10 -67 -40 -51 -15 8 -20 8 -20 -1 0 -7 -9 -9 -25 -5 -21
5 -27 2 -35 -18 -5 -13 -17 -29 -27 -35 -19 -11 -18 -12 87 -15 33 -1 45 -5
45 -16 0 -10 -15 -17 -50 -21 -27 -4 -60 -10 -72 -14 -19 -6 -23 -4 -23 13 0
14 -8 22 -22 24 -19 2 -24 10 -26 46 -3 42 -3 42 30 42 42 0 111 24 116 40 3
8 0 10 -7 6 -7 -4 -18 -3 -25 3 -13 11 -53 17 -71 10 -10 -4 -15 3 -15 21 0 6
20 10 45 10 49 0 53 4 30 27 -11 10 -24 13 -42 8 -22 -5 -24 -4 -15 7 9 11 5
13 -23 10 -30 -4 -35 -1 -35 17 0 26 39 45 115 56 l49 7 -24 19 c-14 11 -35
18 -47 16 -17 -3 -23 1 -23 14 0 10 5 21 10 24 6 3 10 13 10 21 0 12 -4 13
-21 4 -11 -7 -26 -9 -34 -7 -7 3 -18 0 -24 -6 -18 -18 -35 6 -22 32 9 15 22
21 49 22 20 1 48 4 62 8 23 7 77 5 108 -5z m582 3 c0 -1 4 -16 9 -34 7 -24 5
-38 -11 -63 -10 -18 -22 -30 -25 -26 -3 3 0 12 7 21 7 8 11 33 8 60 -2 25 0
45 4 45 5 0 8 -1 8 -3z m-210 -150 c0 -16 -4 -26 -10 -22 -5 3 -10 19 -10 35
0 16 -4 32 -10 35 -5 3 -10 14 -10 23 0 12 6 7 20 -13 11 -16 20 -43 20 -58z
m-110 -3 c0 -8 9 -23 20 -34 16 -16 28 -19 55 -14 38 7 50 -10 15 -21 -47 -15
-130 26 -130 64 0 11 3 10 15 -5 14 -18 15 -17 9 10 -5 21 -4 27 5 22 6 -4 11
-14 11 -22z m1325 -7 c21 -18 25 -28 20 -49 -5 -21 -19 -32 -59 -47 -42 -16
-46 -20 -23 -20 35 -1 35 -23 1 -68 -20 -26 -32 -33 -59 -33 -19 0 -37 5 -41
12 -5 7 -10 4 -15 -10 -7 -19 -16 -22 -76 -23 -37 -1 -79 -5 -93 -9 l-25 -8
26 -1 c15 -1 32 -7 38 -15 16 -19 -38 -52 -100 -61 -43 -6 -47 -5 -52 17 -11
40 -8 47 28 62 19 8 35 21 35 28 0 7 14 25 31 39 l32 26 -33 -5 c-24 -3 -31
-1 -28 9 7 20 155 21 186 1 21 -14 25 -13 52 13 16 15 27 32 24 36 -2 4 11 20
31 35 25 19 35 34 35 54 0 47 24 53 65 17z m-682 -63 c21 -20 37 -37 35 -39
-2 -1 -17 -10 -35 -19 -31 -16 -33 -16 -48 7 -14 23 -12 87 4 87 3 0 23 -16
44 -36z m-220 -26 c34 -47 35 -52 19 -64 -9 -7 -25 -14 -34 -14 -10 0 -33 -14
-53 -31 -19 -17 -35 -26 -35 -20 0 18 -53 12 -85 -9 -30 -20 -65 -27 -65 -12
0 17 48 153 56 162 10 10 108 37 140 39 15 1 32 -14 57 -51z m-457 -85 c13
-54 24 -106 24 -116 0 -25 -26 -32 -55 -13 -13 9 -38 16 -55 16 -18 0 -29 4
-25 10 3 6 17 10 30 10 31 0 55 10 55 22 0 6 -11 7 -26 4 -17 -5 -23 -3 -19 4
3 5 15 10 25 10 14 0 18 5 13 16 -3 9 -13 13 -22 10 -51 -16 -61 -18 -61 -10
0 5 16 20 35 32 27 19 32 27 22 37 -10 11 -17 8 -41 -13 -19 -18 -30 -23 -33
-15 -3 9 -11 8 -29 -3 -21 -15 -24 -15 -24 -1 0 34 12 47 46 47 33 0 46 14 22
23 -7 3 7 14 32 25 26 12 49 17 54 12 4 -4 19 -53 32 -107z m843 69 c13 -21
25 -56 27 -82 l3 -45 -10 45 c-6 25 -17 52 -24 60 -19 23 -37 60 -28 60 4 -1
19 -18 32 -38z m-713 -34 c-4 -35 -10 -79 -13 -98 -6 -33 -7 -34 -14 -10 -13
44 -10 158 4 163 27 11 29 5 23 -55z m523 -53 c-1 -21 -3 -24 -6 -10 -3 11
-15 33 -26 50 l-21 29 26 -19 c20 -15 27 -28 27 -50z m111 44 l25 -21 -30 -24
c-42 -34 -77 -29 -86 14 -5 24 -3 35 10 42 26 15 54 11 81 -11z m-221 -45 c28
-36 17 -48 -36 -40 -35 5 -50 2 -72 -15 -28 -21 -61 -18 -61 6 0 20 61 68 72
57 6 -6 20 -5 36 4 36 18 37 18 61 -12z m274 -28 c35 -75 31 -127 -10 -112
-12 5 -13 9 -3 21 26 31 3 36 -29 6 -18 -17 -42 -31 -53 -31 -24 0 -19 21 9
35 11 6 18 15 16 22 -5 14 34 93 45 93 5 0 16 -15 25 -34z m123 13 c7 -12 -12
-29 -33 -29 -7 0 -13 9 -13 20 0 22 34 28 46 9z m329 -29 c3 -5 -14 -22 -40
-37 -28 -18 -43 -33 -40 -42 6 -15 -38 -61 -58 -61 -19 0 -42 -59 -28 -73 18
-18 -7 -37 -50 -37 -44 0 -49 11 -16 36 22 16 22 16 -10 10 -21 -3 -33 -1 -33
5 0 8 -5 7 -15 -1 -13 -10 -15 -9 -16 11 0 20 -4 17 -18 -15 -21 -48 -30 -38
-38 39 l-6 54 54 3 c33 2 64 -3 80 -11 30 -16 74 -9 82 13 5 12 -1 13 -29 9
-43 -7 -47 15 -4 24 17 3 37 14 44 24 7 11 37 28 67 38 65 23 66 24 74 11z
m-936 -30 l2 25 11 -22 c10 -20 19 -23 71 -23 58 0 59 0 53 -25 -7 -25 0 -31
56 -49 16 -5 16 -8 2 -48 -17 -50 -75 -148 -86 -148 -4 0 -8 19 -8 43 0 40 -1
41 -13 18 -20 -40 -40 -40 -33 0 l6 34 -17 -32 c-20 -39 -33 -42 -41 -10 -6
22 -6 22 -12 -3 -4 -16 -13 -25 -25 -25 -16 0 -21 9 -25 45 -5 34 -7 39 -10
20 -7 -36 -24 -27 -31 17 l-6 38 -2 -37 c-1 -47 -17 -49 -30 -5 -9 31 -9 31
-10 -15 -1 -27 -5 -48 -10 -48 -5 0 -13 -9 -16 -20 -3 -11 -11 -20 -17 -20
-13 0 -1 107 21 180 13 41 24 58 44 68 15 7 27 21 28 30 0 14 2 13 9 -3 l9
-20 1 20 c1 19 1 19 14 3 18 -25 22 -23 36 15 l13 32 7 -30 c7 -28 8 -28 9 -5z
m364 -9 c-7 -27 -41 -61 -59 -61 -11 0 -14 5 -9 18 4 9 10 26 13 37 3 11 13
25 21 32 20 15 41 -1 34 -26z m-133 3 c0 -42 -18 -64 -50 -64 -40 0 -40 30 1
64 38 33 49 33 49 0z m136 -75 c4 -8 29 -9 74 -5 l68 7 6 -55 c13 -100 -15
-166 -38 -88 -10 35 -26 43 -26 13 0 -34 -19 -33 -29 1 -8 29 -9 30 -10 8 -1
-14 -8 -36 -15 -49 l-13 -24 -17 24 c-16 23 -16 23 -16 2 0 -12 -4 -25 -10
-28 -6 -4 -10 14 -11 47 -1 52 -1 52 -11 19 -7 -25 -12 -31 -18 -21 -6 9 -9 5
-12 -16 -4 -34 -20 -35 -30 -2 -3 13 -6 17 -7 11 -1 -7 -8 -13 -17 -13 -9 0
-14 6 -12 13 3 6 15 42 28 78 21 60 26 67 59 76 50 14 49 14 57 2z m268 -222
c14 -10 15 -17 6 -41 -10 -27 -13 -28 -65 -24 -51 3 -55 1 -55 -19 0 -18 -7
-22 -52 -25 -67 -5 -78 -1 -78 29 0 18 9 28 36 39 20 8 43 14 52 12 9 -2 27 7
41 19 27 26 86 31 115 10z"/>
<path d="M780 1536 c0 -2 7 -7 16 -10 8 -3 12 -2 9 4 -6 10 -25 14 -25 6z"/>
<path d="M1770 1470 c-13 -8 -13 -10 2 -10 9 0 23 -3 32 -6 11 -4 16 -1 16 10
0 18 -27 21 -50 6z"/>
<path d="M870 1590 c0 -5 4 -10 9 -10 6 0 13 5 16 10 3 6 -1 10 -9 10 -9 0
-16 -4 -16 -10z"/>
</g>
</svg>
